<svg width="264" height="50" viewBox="0 0 264 50" fill="none" xmlns="http://www.w3.org/2000/svg">
<path d="M75.0358 45C72.438 45 70.292 44.0964 68.5978 42.4022C66.9036 40.708 66 38.449 66 35.8512C66 33.2534 66.9036 31.1074 68.5978 29.3003C70.292 27.606 72.438 26.7025 75.0358 26.7025C77.6336 26.7025 79.7796 27.6061 81.4738 29.5262L79.8926 30.9945C78.6501 29.5262 77.0689 28.7355 75.0358 28.7355C73.1157 28.7355 71.5344 29.4132 70.1791 30.6556C68.8237 31.8981 68.259 33.5923 68.259 35.7383C68.259 37.7713 68.9366 39.4656 70.1791 40.8209C71.5344 42.0633 73.1157 42.741 75.0358 42.741C77.1818 42.741 78.876 41.8375 80.4573 40.2562L82.0386 41.8375C81.2479 42.741 80.2314 43.5317 78.989 44.0964C77.7466 44.6611 76.5041 45 75.0358 45Z" fill="#5B5E63"/>
<path d="M86.2176 27.1543V32.6887L86.1046 34.3829H86.2176C86.5564 33.8182 87.0082 33.3664 87.7988 32.9146C88.4765 32.4628 89.2672 32.3498 90.0578 32.3498C91.5261 32.3498 92.6556 32.8016 93.4462 33.7052C94.2369 34.6088 94.5757 35.8512 94.5757 37.3195V44.6611H92.3168V37.6584C92.3168 35.3994 91.3002 34.3829 89.3801 34.3829C88.4765 34.3829 87.6859 34.7217 87.1212 35.5124C86.5564 36.303 86.2176 37.0936 86.2176 38.1102V44.6611H83.9586V27.2672L86.2176 27.1543Z" fill="#5B5E63"/>
<path d="M99.4325 44.5482H97.1736V32.5757H99.3196V34.4959H99.4325C99.6584 33.8182 100.11 33.2534 100.788 32.9146C101.466 32.4628 102.143 32.2369 102.821 32.2369C103.499 32.2369 104.063 32.3499 104.515 32.5757L103.612 34.7218C103.273 34.6088 102.934 34.4959 102.369 34.4959C101.579 34.4959 100.788 34.8347 100.223 35.5124C99.5455 36.1901 99.3196 36.9807 99.3196 37.9972V44.5482H99.4325Z" fill="#5B5E63"/>
<path d="M106.322 34.0441C107.452 32.8016 108.92 32.2369 110.727 32.2369C112.535 32.2369 114.003 32.8016 115.132 34.0441C116.262 35.2865 116.827 36.7548 116.827 38.562C116.827 40.3691 116.262 41.9504 115.132 43.0799C114.003 44.3223 112.535 44.887 110.727 44.887C108.92 44.887 107.452 44.3223 106.322 43.0799C105.193 41.8375 104.628 40.3691 104.628 38.562C104.628 36.7548 105.193 35.2865 106.322 34.0441ZM108.017 41.7245C108.807 42.5151 109.711 42.854 110.727 42.854C111.744 42.854 112.647 42.4022 113.438 41.7245C114.229 40.9339 114.568 39.9173 114.568 38.562C114.568 37.2066 114.229 36.1901 113.438 35.3994C112.647 34.6088 111.744 34.27 110.727 34.27C109.711 34.27 108.807 34.7218 108.017 35.3994C107.226 36.1901 106.887 37.2066 106.887 38.562C106.887 39.9173 107.226 40.9339 108.017 41.7245Z" fill="#5B5E63"/>
<path d="M118.747 44.5482V32.5757H120.893V34.27H121.006C121.344 33.7052 121.909 33.2534 122.587 32.8016C123.264 32.3499 123.942 32.2369 124.733 32.2369C126.54 32.2369 127.895 33.0275 128.46 34.4959C129.477 33.0275 130.832 32.2369 132.639 32.2369C134.107 32.2369 135.124 32.6887 135.802 33.5923C136.479 34.4959 136.931 35.7383 136.931 37.2066V44.5482H134.672V37.5454C134.672 36.303 134.446 35.5124 133.995 34.9476C133.543 34.4959 132.865 34.157 131.961 34.157C131.058 34.157 130.38 34.4959 129.815 35.2865C129.251 36.0771 128.912 36.8678 128.912 37.8843V44.4352H126.653V37.4325C126.653 36.1901 126.427 35.3994 125.975 34.8347C125.523 34.3829 124.846 34.0441 123.942 34.0441C123.039 34.0441 122.361 34.3829 121.796 35.1735C121.231 35.9642 120.893 36.7548 120.893 37.7713V44.3223L118.747 44.5482Z" fill="#5B5E63"/>
<path d="M144.837 45C143.03 45 141.562 44.4353 140.432 43.1928C139.303 41.9504 138.738 40.4821 138.738 38.6749C138.738 36.9807 139.303 35.3994 140.432 34.157C141.562 32.9146 142.917 32.2369 144.612 32.2369C146.419 32.2369 147.774 32.8016 148.904 33.9311C149.92 35.0606 150.485 36.6419 150.485 38.562V39.0138H140.997C141.11 40.2562 141.449 41.1598 142.24 41.8375C143.03 42.5151 143.821 42.854 144.837 42.854C146.419 42.854 147.548 42.1763 148.113 40.8209L150.146 41.6116C149.807 42.5151 149.129 43.3058 148.226 43.9835C147.322 44.6611 146.193 45 144.837 45ZM148.113 37.2066C148.113 36.5289 147.774 35.8512 147.209 35.2865C146.645 34.6088 145.741 34.3829 144.612 34.3829C143.821 34.3829 143.03 34.6088 142.466 35.1735C141.901 35.7383 141.449 36.416 141.223 37.3196H148.113V37.2066Z" fill="#5B5E63"/>
<path d="M177.592 27.1543L172.961 44.5482H170.702L166.975 33.0275H166.862L163.135 44.5482H160.876L156.019 27.1543H158.391L162.118 40.9339H162.231L165.959 29.5261H168.105L171.832 40.9339H171.945L175.446 27.1543H177.592Z" fill="#5B5E63"/>
<path d="M183.466 45C181.658 45 180.19 44.4353 179.061 43.1928C177.931 41.9504 177.366 40.4821 177.366 38.6749C177.366 36.9807 177.931 35.3994 179.061 34.157C180.19 32.9146 181.546 32.2369 183.24 32.2369C185.047 32.2369 186.402 32.8016 187.532 33.9311C188.548 35.0606 189.113 36.6419 189.113 38.562V39.0138H179.625C179.738 40.2562 180.077 41.1598 180.868 41.8375C181.658 42.5151 182.449 42.854 183.466 42.854C185.047 42.854 186.176 42.1763 186.741 40.8209L188.774 41.6116C188.435 42.5151 187.758 43.3058 186.854 43.9835C185.838 44.6611 184.708 45 183.466 45ZM186.628 37.2066C186.628 36.5289 186.289 35.8512 185.725 35.2865C185.16 34.6088 184.256 34.3829 183.127 34.3829C182.336 34.3829 181.546 34.6088 180.981 35.1735C180.416 35.7383 179.964 36.416 179.738 37.3196H186.628V37.2066Z" fill="#5B5E63"/>
<path d="M197.358 45C196.455 45 195.664 44.7741 194.873 44.4353C194.196 44.0964 193.631 43.5317 193.292 42.9669H193.179V44.6612H191.033V27.2672H193.292V32.8016L193.179 34.4959H193.292C193.631 33.9311 194.196 33.3664 194.873 33.0275C195.551 32.6887 196.455 32.4628 197.358 32.4628C198.939 32.4628 200.182 33.0275 201.311 34.27C202.441 35.5124 203.006 36.9807 203.006 38.7879C203.006 40.595 202.441 42.0634 201.311 43.3058C200.295 44.3223 198.939 45 197.358 45ZM197.019 42.9669C198.036 42.9669 198.939 42.5151 199.73 41.8375C200.521 41.0468 200.86 40.0303 200.86 38.6749C200.86 37.3196 200.521 36.303 199.73 35.5124C198.939 34.7218 198.036 34.3829 197.019 34.3829C196.003 34.3829 195.099 34.7218 194.309 35.5124C193.518 36.303 193.179 37.3196 193.179 38.6749C193.179 40.0303 193.518 41.0468 194.309 41.8375C195.099 42.5151 196.003 42.9669 197.019 42.9669Z" fill="#5B5E63"/>
<path d="M215.091 45C213.848 45 212.606 44.5482 211.364 43.7576C210.121 42.9669 209.331 41.7245 208.992 40.2562L211.025 39.4655C211.251 40.3691 211.815 41.2727 212.493 41.8375C213.171 42.4022 214.074 42.854 215.091 42.854C216.107 42.854 216.898 42.6281 217.576 42.0633C218.253 41.4986 218.592 40.8209 218.592 40.0303C218.592 39.0138 218.253 38.3361 217.576 37.7713C216.898 37.2066 215.769 36.7548 214.3 36.303C212.719 35.8512 211.589 35.1735 210.799 34.3829C210.008 33.5923 209.556 32.5757 209.556 31.4463C209.556 30.2038 210.008 29.0744 211.025 28.1708C212.041 27.2672 213.284 26.8154 214.865 26.8154C216.333 26.8154 217.576 27.1543 218.479 27.9449C219.383 28.7355 219.948 29.5262 220.286 30.3168L218.253 31.2204C218.14 30.6556 217.802 30.2038 217.124 29.6391C216.559 29.1873 215.769 28.9614 214.865 28.9614C213.961 28.9614 213.284 29.1873 212.719 29.6391C212.154 30.0909 211.815 30.7686 211.815 31.4463C211.815 32.124 212.041 32.6887 212.606 33.1405C213.171 33.5923 213.961 34.0441 215.091 34.3829C215.994 34.6088 216.672 34.9476 217.237 35.1735C217.802 35.3994 218.366 35.7383 218.931 36.1901C219.496 36.6419 219.948 37.2066 220.286 37.7713C220.625 38.449 220.738 39.1267 220.738 40.0303C220.738 40.9339 220.512 41.6116 220.174 42.2892C219.835 42.9669 219.383 43.5317 218.818 43.8705C218.253 44.2094 217.576 44.5482 216.898 44.7741C216.446 44.887 215.769 45 215.091 45Z" fill="#5B5E63"/>
<path d="M227.854 44.7741C226.611 44.7741 225.708 44.4353 225.03 43.7576C224.353 43.0799 224.014 42.1763 224.014 40.9339V34.7218H221.868V32.6887H224.014V29.0744H226.273V32.6887H229.209V34.7218H226.273V40.8209C226.273 42.0634 226.837 42.741 227.854 42.741C228.306 42.741 228.645 42.6281 228.87 42.5151L229.661 44.4352C229.096 44.6611 228.532 44.7741 227.854 44.7741Z" fill="#5B5E63"/>
<path d="M232.146 34.0441C233.275 32.8016 234.744 32.2369 236.551 32.2369C238.358 32.2369 239.826 32.8016 240.956 34.0441C242.085 35.2865 242.65 36.7548 242.65 38.562C242.65 40.3691 242.085 41.9504 240.956 43.0799C239.826 44.3223 238.358 44.887 236.551 44.887C234.744 44.887 233.275 44.3223 232.146 43.0799C231.017 41.8375 230.452 40.3691 230.452 38.562C230.452 36.7548 231.017 35.2865 232.146 34.0441ZM233.84 41.7245C234.631 42.5151 235.534 42.854 236.551 42.854C237.567 42.854 238.471 42.4022 239.262 41.7245C240.052 40.9339 240.391 39.9173 240.391 38.562C240.391 37.2066 240.052 36.1901 239.262 35.3994C238.471 34.6088 237.567 34.27 236.551 34.27C235.534 34.27 234.631 34.7218 233.84 35.3994C233.05 36.1901 232.711 37.2066 232.711 38.562C232.711 39.9173 233.05 40.9339 233.84 41.7245Z" fill="#5B5E63"/>
<path d="M246.829 44.5482H244.57V32.5757H246.716V34.4959H246.829C247.055 33.8182 247.507 33.2534 248.184 32.9146C248.862 32.4628 249.54 32.2369 250.218 32.2369C250.895 32.2369 251.46 32.3499 251.912 32.5757L251.008 34.7218C250.669 34.6088 250.331 34.4959 249.766 34.4959C248.975 34.4959 248.184 34.8347 247.62 35.5124C246.942 36.1901 246.716 36.9807 246.716 37.9972V44.5482H246.829Z" fill="#5B5E63"/>
<path d="M258.011 45C256.204 45 254.736 44.4353 253.606 43.1928C252.477 41.9504 251.912 40.4821 251.912 38.6749C251.912 36.9807 252.477 35.3994 253.606 34.157C254.736 32.9146 256.091 32.2369 257.785 32.2369C259.592 32.2369 260.948 32.8016 262.077 33.9311C263.094 35.0606 263.658 36.6419 263.658 38.562V39.0138H254.171C254.284 40.2562 254.623 41.1598 255.413 41.8375C256.204 42.5151 256.995 42.854 258.011 42.854C259.592 42.854 260.722 42.1763 261.287 40.8209L263.32 41.6116C262.981 42.5151 262.303 43.3058 261.399 43.9835C260.496 44.6611 259.366 45 258.011 45ZM261.287 37.2066C261.287 36.5289 260.948 35.8512 260.383 35.2865C259.818 34.6088 258.915 34.3829 257.785 34.3829C256.994 34.3829 256.204 34.6088 255.639 35.1735C255.074 35.7383 254.623 36.416 254.397 37.3196H261.287V37.2066Z" fill="#5B5E63"/>
<path d="M67.2424 17.4408L72.2121 4.22589H74.1322L79.1019 17.4408H77.2948L76.0523 13.8264H70.5179L69.2755 17.4408H67.2424ZM71.0827 12.3581H75.4876L73.3416 6.3719H73.2287L71.0827 12.3581Z" fill="#5B5E63"/>
<path d="M82.1514 17.4408L78.5371 8.40495H80.3443L82.9421 15.4077L85.6528 8.40495H87.46L83.7327 17.4408H82.1514Z" fill="#5B5E63"/>
<path d="M91.3003 17.7796C90.3967 17.7796 89.4931 17.5537 88.9284 16.989C88.2507 16.4242 87.9119 15.7466 87.9119 14.843C87.9119 13.8264 88.2507 13.1488 89.0413 12.4711C89.832 11.9063 90.7356 11.6804 91.865 11.6804C92.8816 11.6804 93.6722 11.9063 94.3499 12.2452V12.0193C94.3499 11.3416 94.124 10.7769 93.6722 10.438C93.2204 9.98622 92.6557 9.87328 91.978 9.87328C91.5262 9.87328 91.0744 9.98623 90.6226 10.2121C90.1708 10.438 89.9449 10.7769 89.832 11.1157L88.2507 10.438C88.4766 9.87328 88.9284 9.42148 89.4931 8.96969C90.0579 8.5179 90.9615 8.29201 91.978 8.29201C93.1075 8.29201 94.124 8.63085 94.8017 9.30854C95.5923 9.98622 95.9312 10.8898 95.9312 12.1322V17.5537H94.3499V16.3113H94.2369C93.6722 17.2149 92.6557 17.7796 91.3003 17.7796ZM91.6391 16.1983C92.3168 16.1983 92.9945 15.9725 93.5592 15.4077C94.124 14.843 94.4628 14.2782 94.4628 13.6006C94.011 13.1488 93.2204 13.0358 92.3168 13.0358C91.5262 13.0358 90.8485 13.2617 90.3967 13.6006C89.9449 13.9394 89.719 14.3912 89.719 14.843C89.719 15.2948 89.9449 15.6336 90.2838 15.8595C90.7356 16.0854 91.1874 16.1983 91.6391 16.1983Z" fill="#5B5E63"/>
<path d="M99.7714 6.146C99.5455 6.37189 99.2066 6.48484 98.8678 6.48484C98.529 6.48484 98.3031 6.37189 97.9642 6.146C97.7383 5.9201 97.6254 5.58127 97.6254 5.24242C97.6254 4.90358 97.7383 4.67768 97.9642 4.33884C98.1901 4.11294 98.529 4 98.8678 4C99.2066 4 99.4325 4.11294 99.7714 4.33884C99.9973 4.56473 100.11 4.90358 100.11 5.24242C100.11 5.58127 99.9973 5.9201 99.7714 6.146ZM99.7714 17.4408H98.0771V8.40495H99.7714V17.4408Z" fill="#5B5E63"/>
<path d="M103.724 17.4408H102.03V4.33884H103.724V17.4408Z" fill="#5B5E63"/>
<path d="M108.468 17.7796C107.565 17.7796 106.661 17.5537 106.096 16.989C105.419 16.4242 105.08 15.7466 105.08 14.843C105.08 13.8264 105.419 13.1488 106.209 12.4711C107 11.9063 107.904 11.6804 109.033 11.6804C110.05 11.6804 110.84 11.9063 111.518 12.2452V12.0193C111.518 11.3416 111.292 10.7769 110.84 10.438C110.388 9.98622 109.824 9.87328 109.146 9.87328C108.694 9.87328 108.242 9.98623 107.791 10.2121C107.339 10.438 107.113 10.7769 107 11.1157L105.419 10.438C105.645 9.87328 106.096 9.42148 106.661 8.96969C107.226 8.5179 108.129 8.29201 109.146 8.29201C110.275 8.29201 111.292 8.63085 111.97 9.30854C112.76 9.98622 113.099 10.8898 113.099 12.1322V17.5537H111.518V16.3113H111.405C110.84 17.2149 109.824 17.7796 108.468 17.7796ZM108.807 16.1983C109.485 16.1983 110.162 15.9725 110.727 15.4077C111.292 14.843 111.631 14.2782 111.631 13.6006C111.179 13.1488 110.388 13.0358 109.485 13.0358C108.694 13.0358 108.016 13.2617 107.565 13.6006C107.113 13.9394 106.887 14.3912 106.887 14.843C106.887 15.2948 107.113 15.6336 107.452 15.8595C107.904 16.0854 108.355 16.1983 108.807 16.1983Z" fill="#5B5E63"/>
<path d="M119.876 17.7796C119.198 17.7796 118.521 17.6667 118.069 17.3278C117.504 16.989 117.165 16.6501 116.826 16.1983H116.713V17.4408H115.132V4.33884H116.826V8.51791L116.713 9.76033H116.826C117.052 9.30854 117.504 8.96969 118.069 8.63085C118.634 8.29201 119.198 8.17906 119.876 8.17906C121.005 8.17906 122.022 8.63085 122.926 9.53443C123.829 10.438 124.168 11.5675 124.168 12.9229C124.168 14.2782 123.716 15.4077 122.926 16.3113C122.022 17.3278 121.005 17.7796 119.876 17.7796ZM119.65 16.1983C120.441 16.1983 121.118 15.8595 121.683 15.2948C122.248 14.73 122.587 13.9394 122.587 12.9229C122.587 11.9063 122.361 11.1157 121.683 10.551C121.118 9.98622 120.441 9.64738 119.65 9.64738C118.859 9.64738 118.182 9.98622 117.617 10.551C117.052 11.1157 116.826 11.9063 116.826 12.9229C116.826 13.9394 117.052 14.73 117.617 15.2948C118.069 15.9725 118.747 16.1983 119.65 16.1983Z" fill="#5B5E63"/>
<path d="M127.331 17.4408H125.636V4.33884H127.331V17.4408Z" fill="#5B5E63"/>
<path d="M133.43 17.7796C132.074 17.7796 130.945 17.3278 130.154 16.4242C129.251 15.5206 128.912 14.3912 128.912 12.9228C128.912 11.5675 129.364 10.438 130.154 9.53442C130.945 8.63083 132.074 8.0661 133.317 8.0661C134.672 8.0661 135.689 8.51789 136.592 9.42147C137.383 10.3251 137.835 11.4545 137.835 12.9228V13.2617H130.719C130.719 14.1653 131.058 14.843 131.623 15.4077C132.187 15.9724 132.865 16.1983 133.543 16.1983C134.785 16.1983 135.576 15.6336 136.028 14.6171L137.496 15.2948C137.157 15.9724 136.705 16.5372 136.028 17.1019C135.237 17.5537 134.333 17.7796 133.43 17.7796ZM135.802 11.9063C135.802 11.3416 135.576 10.8898 135.124 10.438C134.672 9.98621 133.995 9.76032 133.204 9.76032C132.526 9.76032 132.074 9.98621 131.623 10.3251C131.171 10.7768 130.832 11.2286 130.719 11.9063H135.802Z" fill="#5B5E63"/>
<path d="M145.063 6.146C144.837 6.37189 144.499 6.48484 144.16 6.48484C143.821 6.48484 143.595 6.37189 143.256 6.146C143.03 5.9201 142.917 5.58127 142.917 5.24242C142.917 4.90358 143.03 4.67768 143.256 4.33884C143.482 4.11294 143.821 4 144.16 4C144.499 4 144.725 4.11294 145.063 4.33884C145.289 4.56473 145.402 4.90358 145.402 5.24242C145.402 5.58127 145.289 5.9201 145.063 6.146ZM145.063 17.4408H143.369V8.40495H145.063V17.4408Z" fill="#5B5E63"/>
<path d="M148.904 8.40494V9.64737H149.016C149.242 9.19558 149.694 8.85674 150.146 8.51789C150.711 8.17905 151.275 8.0661 151.84 8.0661C152.97 8.0661 153.76 8.40495 154.438 9.08263C155.003 9.76032 155.342 10.6639 155.342 11.9063V17.4408H153.647V12.1322C153.647 10.438 152.857 9.64737 151.388 9.64737C150.711 9.64737 150.146 9.87326 149.694 10.438C149.242 11.0027 149.016 11.6804 149.016 12.3581V17.3278H147.322V8.29199L148.904 8.40494Z" fill="#5B5E63"/>
<path d="M165.281 17.6667C164.377 17.6667 163.587 17.4408 163.135 16.876C162.683 16.4242 162.344 15.6336 162.344 14.73V9.98621H160.763V8.40494H162.344V5.58125H164.039V8.40494H166.298V9.98621H164.039V14.6171C164.039 15.6336 164.49 16.0854 165.281 16.0854C165.62 16.0854 165.846 16.0854 166.072 15.9724L166.636 17.4408C166.298 17.5537 165.846 17.6667 165.281 17.6667Z" fill="#5B5E63"/>
<path d="M169.686 4.33884V8.51791L169.573 9.76033H169.686C169.912 9.30854 170.364 8.96969 170.815 8.63085C171.38 8.29201 171.945 8.17906 172.51 8.17906C173.639 8.17906 174.43 8.5179 175.107 9.19559C175.672 9.87328 176.011 10.7769 176.011 12.0193V17.5537H174.317V12.2452C174.317 10.551 173.526 9.76033 172.058 9.76033C171.38 9.76033 170.815 9.98622 170.364 10.551C169.912 11.1157 169.686 11.7934 169.686 12.4711V17.4408H167.992V4.33884H169.686Z" fill="#5B5E63"/>
<path d="M182.11 17.7796C180.755 17.7796 179.625 17.3278 178.835 16.4242C177.931 15.5206 177.592 14.3912 177.592 12.9228C177.592 11.5675 178.044 10.438 178.835 9.53442C179.625 8.63083 180.755 8.0661 181.997 8.0661C183.353 8.0661 184.369 8.51789 185.273 9.42147C186.063 10.3251 186.515 11.4545 186.515 12.9228V13.2617H179.399C179.399 14.1653 179.738 14.843 180.303 15.4077C180.868 15.9724 181.545 16.1983 182.223 16.1983C183.466 16.1983 184.256 15.6336 184.708 14.6171L186.176 15.2948C185.837 15.9724 185.386 16.5372 184.708 17.1019C183.917 17.5537 183.014 17.7796 182.11 17.7796ZM184.482 11.9063C184.482 11.3416 184.256 10.8898 183.804 10.438C183.353 9.98621 182.675 9.76032 181.884 9.76032C181.207 9.76032 180.755 9.98621 180.303 10.3251C179.851 10.7768 179.512 11.2286 179.399 11.9063H184.482Z" fill="#5B5E63"/>
<mask id="mask0_14_30" style="mask-type:luminance" maskUnits="userSpaceOnUse" x="0" y="0" width="57" height="50">
<path d="M0 0V45.2658C0 47.3917 1.77165 49.1634 3.89764 49.1634H53.061C55.187 49.1634 56.9587 47.3917 56.9587 45.2658V0H0ZM34.9016 10.3642H21.9685C20.5512 10.3642 19.3996 9.2126 19.3996 7.79528C19.3996 6.37796 20.5512 5.22638 21.9685 5.22638H34.9016C36.3189 5.22638 37.4705 6.37796 37.4705 7.79528C37.4705 9.2126 36.3189 10.3642 34.9016 10.3642Z" fill="white"/>
</mask>
<g mask="url(#mask0_14_30)">
<path d="M0 0H56.9587V49.1634H0V0Z" fill="#EEEDEE"/>
</g>
<mask id="mask1_14_30" style="mask-type:luminance" maskUnits="userSpaceOnUse" x="0" y="0" width="57" height="50">
<path d="M0 0V45.2658C0 47.3917 1.77165 49.1634 3.89764 49.1634H53.061C55.187 49.1634 56.9587 47.3917 56.9587 45.2658V0H0ZM34.9016 10.3642H21.9685C20.5512 10.3642 19.3996 9.2126 19.3996 7.79528C19.3996 6.37796 20.5512 5.22638 21.9685 5.22638H34.9016C36.3189 5.22638 37.4705 6.37796 37.4705 7.79528C37.4705 9.2126 36.3189 10.3642 34.9016 10.3642Z" fill="white"/>
</mask>
<g mask="url(#mask1_14_30)">
<path d="M34.9016 5.22638H21.9686C20.5512 5.22638 19.3997 6.37796 19.3997 7.79528C19.3997 9.2126 20.5512 10.3642 21.9686 10.3642H34.9016C36.3189 10.3642 37.4705 9.2126 37.4705 7.79528C37.4705 6.37796 36.3189 5.22638 34.9016 5.22638Z" fill="white"/>
</g>
<mask id="mask2_14_30" style="mask-type:luminance" maskUnits="userSpaceOnUse" x="0" y="0" width="57" height="50">
<path d="M0 0V45.2658C0 47.3917 1.77165 49.1634 3.89764 49.1634H53.061C55.187 49.1634 56.9587 47.3917 56.9587 45.2658V0H0ZM34.9016 10.3642H21.9685C20.5512 10.3642 19.3996 9.2126 19.3996 7.79528C19.3996 6.37796 20.5512 5.22638 21.9685 5.22638H34.9016C36.3189 5.22638 37.4705 6.37796 37.4705 7.79528C37.4705 9.2126 36.3189 10.3642 34.9016 10.3642Z" fill="white"/>
</mask>
<g mask="url(#mask2_14_30)">
<mask id="mask3_14_30" style="mask-type:luminance" maskUnits="userSpaceOnUse" x="3" y="20" width="51" height="50">
<mask id="mask4_14_30" style="mask-type:luminance" maskUnits="userSpaceOnUse" x="3" y="20" width="51" height="50">
<mask id="mask5_14_30" style="mask-type:luminance" maskUnits="userSpaceOnUse" x="3" y="20" width="51" height="50">
<mask id="mask6_14_30" style="mask-type:luminance" maskUnits="userSpaceOnUse" x="3" y="20" width="51" height="50">
<path d="M53.046 47.0916C54.0101 33.5252 43.794 21.7459 30.2276 20.7818C16.6613 19.8177 4.88204 30.0338 3.91793 43.6002C2.95381 57.1665 13.1699 68.9458 26.7363 69.9099C40.3026 70.874 52.0819 60.6579 53.046 47.0916Z" fill="white"/>
</mask>
<g mask="url(#mask6_14_30)">
<path d="M53.046 47.0916C54.0101 33.5252 43.794 21.7459 30.2276 20.7818C16.6613 19.8177 4.88204 30.0338 3.91793 43.6002C2.95381 57.1665 13.1699 68.9458 26.7363 69.9099C40.3026 70.874 52.0819 60.6579 53.046 47.0916Z" fill="white"/>
</g>
</mask>
<g mask="url(#mask5_14_30)">
<path d="M53.046 47.0916C54.0101 33.5252 43.794 21.7459 30.2276 20.7818C16.6613 19.8177 4.88204 30.0338 3.91793 43.6002C2.95381 57.1665 13.1699 68.9458 26.7363 69.9099C40.3026 70.874 52.0819 60.6579 53.046 47.0916Z" fill="white"/>
</g>
</mask>
<g mask="url(#mask4_14_30)">
<path d="M53.046 47.0916C54.0101 33.5252 43.794 21.7459 30.2276 20.7818C16.6613 19.8177 4.88204 30.0338 3.91793 43.6002C2.95381 57.1665 13.1699 68.9458 26.7363 69.9099C40.3026 70.874 52.0819 60.6579 53.046 47.0916Z" fill="white"/>
</g>
</mask>
<g mask="url(#mask3_14_30)">
<path d="M7.79517 20.7283V50.935H18.7794L28.4349 34.1929H53.0609V20.8169H7.79517V20.7283ZM7.79517 20.7283V50.935H18.7794L28.4349 34.1929H53.0609V20.8169H7.79517V20.7283Z" fill="#DC4637"/>
</g>
<mask id="mask7_14_30" style="mask-type:luminance" maskUnits="userSpaceOnUse" x="3" y="20" width="51" height="50">
<mask id="mask8_14_30" style="mask-type:luminance" maskUnits="userSpaceOnUse" x="3" y="20" width="51" height="50">
<mask id="mask9_14_30" style="mask-type:luminance" maskUnits="userSpaceOnUse" x="3" y="20" width="51" height="50">
<mask id="mask10_14_30" style="mask-type:luminance" maskUnits="userSpaceOnUse" x="3" y="20" width="51" height="50">
<path d="M53.046 47.0916C54.0101 33.5252 43.794 21.7459 30.2276 20.7818C16.6613 19.8177 4.88204 30.0338 3.91793 43.6002C2.95381 57.1665 13.1699 68.9458 26.7363 69.9099C40.3026 70.874 52.0819 60.6579 53.046 47.0916Z" fill="white"/>
</mask>
<g mask="url(#mask10_14_30)">
<path d="M53.046 47.0916C54.0101 33.5252 43.794 21.7459 30.2276 20.7818C16.6613 19.8177 4.88204 30.0338 3.91793 43.6002C2.95381 57.1665 13.1699 68.9458 26.7363 69.9099C40.3026 70.874 52.0819 60.6579 53.046 47.0916Z" fill="white"/>
</g>
</mask>
<g mask="url(#mask9_14_30)">
<path d="M53.046 47.0916C54.0101 33.5252 43.794 21.7459 30.2276 20.7818C16.6613 19.8177 4.88204 30.0338 3.91793 43.6002C2.95381 57.1665 13.1699 68.9458 26.7363 69.9099C40.3026 70.874 52.0819 60.6579 53.046 47.0916Z" fill="white"/>
</g>
</mask>
<g mask="url(#mask8_14_30)">
<path d="M53.046 47.0916C54.0101 33.5252 43.794 21.7459 30.2276 20.7818C16.6613 19.8177 4.88204 30.0338 3.91793 43.6002C2.95381 57.1665 13.1699 68.9458 26.7363 69.9099C40.3026 70.874 52.0819 60.6579 53.046 47.0916Z" fill="white"/>
</g>
</mask>
<g mask="url(#mask7_14_30)">
<path d="M3.89758 69.8917H27.2834L38.0905 59.0846V50.935H18.7795L3.89758 25.3347C3.89758 25.3347 3.89758 69.8917 3.89758 69.8917ZM3.89758 69.8917H27.2834L38.0905 59.0846V50.935H18.7795L3.89758 25.3347C3.89758 25.3347 3.89758 69.8917 3.89758 69.8917Z" fill="#0F9D58"/>
</g>
<mask id="mask11_14_30" style="mask-type:luminance" maskUnits="userSpaceOnUse" x="3" y="20" width="51" height="50">
<mask id="mask12_14_30" style="mask-type:luminance" maskUnits="userSpaceOnUse" x="3" y="20" width="51" height="50">
<mask id="mask13_14_30" style="mask-type:luminance" maskUnits="userSpaceOnUse" x="3" y="20" width="51" height="50">
<mask id="mask14_14_30" style="mask-type:luminance" maskUnits="userSpaceOnUse" x="3" y="20" width="51" height="50">
<path d="M53.046 47.0916C54.0101 33.5252 43.794 21.7459 30.2276 20.7818C16.6613 19.8177 4.88204 30.0338 3.91793 43.6002C2.95381 57.1665 13.1699 68.9458 26.7363 69.9099C40.3026 70.874 52.0819 60.6579 53.046 47.0916Z" fill="white"/>
</mask>
<g mask="url(#mask14_14_30)">
<path d="M53.046 47.0916C54.0101 33.5252 43.794 21.7459 30.2276 20.7818C16.6613 19.8177 4.88204 30.0338 3.91793 43.6002C2.95381 57.1665 13.1699 68.9458 26.7363 69.9099C40.3026 70.874 52.0819 60.6579 53.046 47.0916Z" fill="white"/>
</g>
</mask>
<g mask="url(#mask13_14_30)">
<path d="M53.046 47.0916C54.0101 33.5252 43.794 21.7459 30.2276 20.7818C16.6613 19.8177 4.88204 30.0338 3.91793 43.6002C2.95381 57.1665 13.1699 68.9458 26.7363 69.9099C40.3026 70.874 52.0819 60.6579 53.046 47.0916Z" fill="white"/>
</g>
</mask>
<g mask="url(#mask12_14_30)">
<path d="M53.046 47.0916C54.0101 33.5252 43.794 21.7459 30.2276 20.7818C16.6613 19.8177 4.88204 30.0338 3.91793 43.6002C2.95381 57.1665 13.1699 68.9458 26.7363 69.9099C40.3026 70.874 52.0819 60.6579 53.046 47.0916Z" fill="white"/>
</g>
</mask>
<g mask="url(#mask11_14_30)">
<path d="M28.435 34.1929L38.0905 50.935L27.1948 69.8917H52.9724V34.1043H28.435V34.1929ZM28.435 34.1929L38.0905 50.935L27.1948 69.8917H52.9724V34.1043H28.435V34.1929Z" fill="#FFCE41"/>
</g>
<mask id="mask15_14_30" style="mask-type:luminance" maskUnits="userSpaceOnUse" x="3" y="20" width="51" height="50">
<mask id="mask16_14_30" style="mask-type:luminance" maskUnits="userSpaceOnUse" x="3" y="20" width="51" height="50">
<mask id="mask17_14_30" style="mask-type:luminance" maskUnits="userSpaceOnUse" x="3" y="20" width="51" height="50">
<mask id="mask18_14_30" style="mask-type:luminance" maskUnits="userSpaceOnUse" x="3" y="20" width="51" height="50">
<path d="M53.046 47.0916C54.0101 33.5252 43.794 21.7459 30.2276 20.7818C16.6613 19.8177 4.88204 30.0338 3.91793 43.6002C2.95381 57.1665 13.1699 68.9458 26.7363 69.9099C40.3026 70.874 52.0819 60.6579 53.046 47.0916Z" fill="white"/>
</mask>
<g mask="url(#mask18_14_30)">
<path d="M53.046 47.0916C54.0101 33.5252 43.794 21.7459 30.2276 20.7818C16.6613 19.8177 4.88204 30.0338 3.91793 43.6002C2.95381 57.1665 13.1699 68.9458 26.7363 69.9099C40.3026 70.874 52.0819 60.6579 53.046 47.0916Z" fill="white"/>
</g>
</mask>
<g mask="url(#mask17_14_30)">
<path d="M53.046 47.0916C54.0101 33.5252 43.794 21.7459 30.2276 20.7818C16.6613 19.8177 4.88204 30.0338 3.91793 43.6002C2.95381 57.1665 13.1699 68.9458 26.7363 69.9099C40.3026 70.874 52.0819 60.6579 53.046 47.0916Z" fill="white"/>
</g>
</mask>
<g mask="url(#mask16_14_30)">
<path d="M53.046 47.0916C54.0101 33.5252 43.794 21.7459 30.2276 20.7818C16.6613 19.8177 4.88204 30.0338 3.91793 43.6002C2.95381 57.1665 13.1699 68.9458 26.7363 69.9099C40.3026 70.874 52.0819 60.6579 53.046 47.0916Z" fill="white"/>
</g>
</mask>
<g mask="url(#mask15_14_30)">
<path d="M28.435 56.5157C34.5993 56.5157 39.5964 51.5186 39.5964 45.3543C39.5964 39.19 34.5993 34.1929 28.435 34.1929C22.2707 34.1929 17.2736 39.19 17.2736 45.3543C17.2736 51.5186 22.2707 56.5157 28.435 56.5157Z" fill="#F2F2F2"/>
<path d="M28.435 54.3012C33.3762 54.3012 37.3819 50.2955 37.3819 45.3543C37.3819 40.4131 33.3762 36.4075 28.435 36.4075C23.4938 36.4075 19.4882 40.4131 19.4882 45.3543C19.4882 50.2955 23.4938 54.3012 28.435 54.3012Z" fill="#557EBF"/>
</g>
<mask id="mask19_14_30" style="mask-type:luminance" maskUnits="userSpaceOnUse" x="0" y="0" width="57" height="50">
<path d="M0 0V45.2658C0 47.3917 1.77165 49.1634 3.89764 49.1634H53.061C55.187 49.1634 56.9587 47.3917 56.9587 45.2658V0H0ZM34.9016 10.3642H21.9685C20.5512 10.3642 19.3996 9.2126 19.3996 7.79528C19.3996 6.37796 20.5512 5.22638 21.9685 5.22638H34.9016C36.3189 5.22638 37.4705 6.37796 37.4705 7.79528C37.4705 9.2126 36.3189 10.3642 34.9016 10.3642Z" fill="white"/>
</mask>
<g mask="url(#mask19_14_30)">
<path d="M0 0H56.9587V24.626H0V0Z" fill="#212121" fill-opacity="0.05"/>
</g>
<path d="M0 24.2717H56.9587V24.626H0V24.2717Z" fill="#212121" fill-opacity="0.02"/>
<path d="M0 24.626H56.9587V24.9803H0V24.626Z" fill="white" fill-opacity="0.05"/>
<path d="M34.9016 10.3642H21.9685C20.6398 10.3642 19.4882 9.30118 19.3996 7.97244C19.3996 8.06102 19.3996 8.06103 19.3996 8.14961C19.3996 9.56693 20.5512 10.7185 21.9685 10.7185H34.9016C36.3189 10.7185 37.4705 9.56693 37.4705 8.14961C37.4705 8.06103 37.4705 8.06102 37.4705 7.97244C37.3819 9.30118 36.3189 10.3642 34.9016 10.3642ZM0 0V0.354332H56.9587V0H0Z" fill="#212121" fill-opacity="0.02"/>
<path d="M21.9685 5.22637H34.9016C36.2303 5.22637 37.3819 6.28937 37.4705 7.61811C37.4705 7.52953 37.4705 7.52952 37.4705 7.44094C37.4705 6.02362 36.3189 4.87204 34.9016 4.87204H21.9685C20.5512 4.87204 19.3996 6.02362 19.3996 7.44094C19.3996 7.52952 19.3996 7.52953 19.3996 7.61811C19.4882 6.28937 20.6398 5.22637 21.9685 5.22637ZM53.061 48.8976H3.89764C1.77165 48.8976 0 47.126 0 45V45.3543C0 47.4803 1.77165 49.252 3.89764 49.252H53.061C55.187 49.252 56.9587 47.4803 56.9587 45.3543V45C56.9587 47.126 55.187 48.8976 53.061 48.8976Z" fill="#231F20" fill-opacity="0.1"/>
<path d="M0 0V45.2658C0 47.3917 1.77165 49.1634 3.89764 49.1634H53.061C55.187 49.1634 56.9587 47.3917 56.9587 45.2658V0H0ZM34.9016 10.3642H21.9685C20.5512 10.3642 19.3996 9.2126 19.3996 7.79528C19.3996 6.37796 20.5512 5.22638 21.9685 5.22638H34.9016C36.3189 5.22638 37.4705 6.37796 37.4705 7.79528C37.4705 9.2126 36.3189 10.3642 34.9016 10.3642Z" fill="url(#paint0_radial_14_30)"/>
</g>
<defs>
<radialGradient id="paint0_radial_14_30" cx="0" cy="0" r="1" gradientUnits="userSpaceOnUse" gradientTransform="translate(-0.171522 -0.169837) scale(73.6202)">
<stop stop-color="white" stop-opacity="0.1"/>
<stop offset="1" stop-color="white" stop-opacity="0"/>
</radialGradient>
</defs>
</svg>
