<svg width="204" height="127" viewBox="0 0 204 127" fill="none" xmlns="http://www.w3.org/2000/svg">
<circle cx="4.5" cy="121.876" r="4.5" fill="#59C059" fill-opacity="0.36"/>
<circle cx="43.5" cy="121.876" r="4.5" fill="#59C059" fill-opacity="0.36"/>
<circle cx="82.5" cy="121.876" r="4.5" fill="#59C059" fill-opacity="0.36"/>
<circle cx="121.5" cy="121.876" r="4.5" fill="#59C059" fill-opacity="0.36"/>
<circle cx="160.5" cy="121.876" r="4.5" fill="#59C059" fill-opacity="0.36"/>
<circle cx="199.5" cy="121.876" r="4.5" fill="#59C059" fill-opacity="0.36"/>
<circle cx="4.5" cy="82.8762" r="4.5" fill="#59C059" fill-opacity="0.36"/>
<circle cx="43.5" cy="82.8762" r="4.5" fill="#59C059" fill-opacity="0.36"/>
<circle cx="82.5" cy="82.8762" r="4.5" fill="#59C059" fill-opacity="0.36"/>
<circle cx="121.5" cy="82.8762" r="4.5" fill="#59C059" fill-opacity="0.36"/>
<circle cx="160.5" cy="82.8762" r="4.5" fill="#59C059" fill-opacity="0.36"/>
<circle cx="199.5" cy="82.8762" r="4.5" fill="#59C059" fill-opacity="0.36"/>
<circle cx="4.5" cy="43.8762" r="4.5" fill="#59C059" fill-opacity="0.36"/>
<circle cx="43.5" cy="43.8762" r="4.5" fill="#59C059" fill-opacity="0.36"/>
<circle cx="82.5" cy="43.8762" r="4.5" fill="#59C059" fill-opacity="0.36"/>
<circle cx="121.5" cy="43.8762" r="4.5" fill="#59C059" fill-opacity="0.36"/>
<circle cx="160.5" cy="43.8762" r="4.5" fill="#59C059" fill-opacity="0.36"/>
<circle cx="199.5" cy="43.8762" r="4.5" fill="#59C059" fill-opacity="0.36"/>
<circle cx="4.5" cy="4.87622" r="4.5" fill="#59C059" fill-opacity="0.36"/>
<circle cx="43.5" cy="4.87622" r="4.5" fill="#59C059" fill-opacity="0.36"/>
<circle cx="82.5" cy="4.87622" r="4.5" fill="#59C059" fill-opacity="0.36"/>
<circle cx="121.5" cy="4.87622" r="4.5" fill="#59C059" fill-opacity="0.36"/>
<circle cx="160.5" cy="4.87622" r="4.5" fill="#59C059" fill-opacity="0.36"/>
<circle cx="199.5" cy="4.87622" r="4.5" fill="#59C059" fill-opacity="0.36"/>
</svg>
