<svg width="284" height="158" viewBox="0 0 284 158" fill="none" xmlns="http://www.w3.org/2000/svg">
<path d="M272.808 25.0932C264.736 27.4365 256.651 29.7798 248.578 32.1231C247.436 32.4543 247.922 34.199 249.077 33.8551C257.149 31.5118 265.235 29.1685 273.307 26.8252C274.436 26.5068 273.95 24.7621 272.808 25.0932Z" fill="#59C059"/>
<path d="M248.355 31.9193C229.179 25.6026 209.989 19.2858 190.812 12.9691C189.788 12.638 189.224 14.0898 190.103 14.612C205.434 23.6796 220.752 32.7599 236.083 41.8275C237.107 42.4388 238.038 40.8723 237.015 40.2737C221.684 31.2062 206.366 22.1258 191.035 13.0583C190.799 13.6059 190.563 14.1535 190.327 14.7011C209.503 21.0179 228.693 27.3346 247.87 33.6514C248.998 34.0334 249.484 32.2887 248.355 31.9193Z" fill="#59C059"/>
<path d="M273.95 22.597C240.112 15.8091 206.143 9.64515 172.069 4.10526C170.901 3.91423 170.402 5.64623 171.57 5.83726C205.644 11.3771 239.614 17.5411 273.452 24.329C274.633 24.5583 275.132 22.8263 273.95 22.597Z" fill="#59C059"/>
<path d="M236.66 40.9488C227.302 41.5346 217.969 42.4134 208.663 43.585C207.495 43.7378 207.482 45.5335 208.663 45.3807C217.969 44.2091 227.289 43.3303 236.66 42.7445C237.842 42.6681 237.855 40.8724 236.66 40.9488Z" fill="#59C059"/>
<path d="M169.102 5.97733C182.386 20.4829 196.443 34.2498 211.288 47.2654C212.168 48.0423 213.493 46.7687 212.601 45.9919C197.756 32.989 183.698 19.2221 170.415 4.70379C169.627 3.83779 168.315 5.11133 169.102 5.97733Z" fill="#59C059"/>
<path d="M249.852 34.5046C249.878 42.8717 250.364 51.2007 251.348 59.5169C251.479 60.6503 253.343 60.663 253.199 59.5169C252.227 51.2007 251.729 42.8717 251.702 34.5046C251.702 33.3456 249.852 33.3456 249.852 34.5046Z" fill="#59C059"/>
<path d="M236.936 41.509C241.477 47.813 246.006 54.1298 250.547 60.4338C251.23 61.3762 252.831 60.4847 252.149 59.5296C247.607 53.2255 243.079 46.9088 238.537 40.6048C237.868 39.6624 236.253 40.5539 236.936 41.509Z" fill="#59C059"/>
<path d="M251.453 59.3132C243.276 53.1747 234.862 47.3674 226.199 41.9039C225.188 41.2671 224.27 42.8336 225.267 43.4576C233.799 48.8447 242.094 54.5502 250.153 60.5867C251.085 61.2872 252.398 60.0264 251.453 59.3132Z" fill="#59C059"/>
<path d="M1.38248 156.854C-1.08515 136.337 8.62783 115.655 23.578 100.958C38.5282 86.2614 58.2298 76.9136 78.3909 70.3167C85.6888 67.9352 93.1704 65.8339 99.812 62.0387C112.124 55.0088 120.38 42.7064 125.617 29.8182C129.568 20.0884 130.421 6.19409 120.577 1.94048C113.699 -1.02687 105.233 3.40506 101.899 9.95104C98.5782 16.497 99.3264 24.3293 101.387 31.3465C107.162 51.0226 122.428 67.1584 140.357 77.907C158.3 88.6557 178.842 94.5776 199.397 99.1623C213.257 102.257 227.459 104.817 241.622 103.607C255.785 102.397 270.065 97.0228 279.293 86.5161C281.091 84.4657 282.771 81.9186 282.259 79.2697C281.852 77.1301 280.133 75.5 278.492 74.0227C272.546 68.6356 266.587 63.2359 260.641 57.8488" stroke="#59C059" stroke-width="1.5" stroke-miterlimit="10" stroke-linecap="round" stroke-dasharray="9.74 9.74"/>
<path d="M208.742 19.5533C210.133 22.1259 211.512 24.6857 212.903 27.2582C213.454 28.2898 215.056 27.3729 214.504 26.354C213.113 23.7815 211.735 21.2217 210.343 18.6491C209.792 17.6176 208.191 18.5345 208.742 19.5533Z" fill="#59C059"/>
<path d="M215.777 20.1649C217.68 24.3931 219.584 28.6085 221.487 32.8366C221.959 33.8937 223.561 32.9767 223.088 31.9324C221.185 27.7043 219.282 23.4889 217.379 19.2607C216.906 18.1909 215.305 19.1079 215.777 20.1649Z" fill="#59C059"/>
<path d="M226.646 26.3161C228.444 30.124 230.229 33.9446 232.027 37.7525C232.526 38.8095 234.127 37.8925 233.628 36.8482C231.83 33.0404 230.045 29.2198 228.247 25.4119C227.748 24.3549 226.147 25.2718 226.646 26.3161Z" fill="#59C059"/>
<path d="M235.112 29.5126C237.067 35.2308 239.167 40.898 241.399 46.5143C241.819 47.5841 243.617 47.1257 243.184 46.0304C240.953 40.4141 238.852 34.7469 236.897 29.0287C236.529 27.9334 234.731 28.4047 235.112 29.5126Z" fill="#59C059"/>
<path d="M242.003 34.1738C243.814 39.5226 245.612 44.8715 247.424 50.2203C247.791 51.3156 249.589 50.8444 249.209 49.7364C247.397 44.3875 245.599 39.0387 243.788 33.6898C243.42 32.6073 241.622 33.0785 242.003 34.1738Z" fill="#59C059"/>
<path d="M248.421 34.7723C249.248 37.5231 249.786 40.3122 250.009 43.1776C250.101 44.3238 251.952 44.3366 251.86 43.1776C251.624 40.1594 251.073 37.2047 250.206 34.3011C249.878 33.1931 248.08 33.6643 248.421 34.7723Z" fill="#59C059"/>
</svg>
